<svg width="18" height="18" viewBox="0 0 18 18" fill="none" xmlns="http://www.w3.org/2000/svg">
<path d="M17.4776 10.2333C17.4172 10.2068 17.3493 10.2024 17.286 10.2211C17.2227 10.2398 17.1681 10.2802 17.1317 10.3352C16.4611 11.3304 15.5539 12.1434 14.4915 12.7015C13.4292 13.2596 12.2449 13.5452 11.045 13.5327C9.10715 13.5167 7.29498 12.7574 5.94224 11.3947C5.26518 10.7137 4.73203 9.90334 4.37453 9.012C4.01702 8.12067 3.84246 7.16652 3.86123 6.20635C3.88 5.24617 4.09172 4.29958 4.48379 3.42289C4.87586 2.54621 5.44027 1.75735 6.14344 1.10325C6.19154 1.05844 6.22245 0.998216 6.23082 0.933013C6.23919 0.86781 6.22449 0.801734 6.18927 0.746229C6.15405 0.690724 6.10052 0.649286 6.03796 0.629095C5.9754 0.608903 5.90775 0.611229 5.84672 0.635669C4.23625 1.27439 2.85241 2.37815 1.87157 3.80627C0.72077 5.48216 0.196743 7.50971 0.391396 9.53333C0.586048 11.557 1.48695 13.4474 2.9361 14.8732C4.58187 16.4929 6.76975 17.3848 9.0966 17.3848C11.1064 17.3843 13.0555 16.6957 14.6196 15.4336C16.1501 14.1949 17.2155 12.474 17.6418 10.5517C17.6563 10.4878 17.6479 10.4208 17.6178 10.3625C17.5878 10.3043 17.5381 10.2585 17.4776 10.2333ZM14.354 15.1059C12.8651 16.3072 11.0097 16.9625 9.0966 16.9629C6.88112 16.9629 4.79836 16.114 3.23201 14.5725C1.85354 13.2163 0.996548 11.4181 0.81134 9.49316C0.626131 7.56827 1.12453 5.63961 2.21912 4.04544C3.01267 2.88994 4.08594 1.95424 5.33882 1.32561C4.06467 2.76954 3.38717 4.64389 3.44362 6.56877C3.50007 8.49366 4.28627 10.3251 5.64285 11.6919C7.07445 13.134 8.99173 13.9376 11.0414 13.9545C11.0631 13.9545 11.0845 13.9548 11.1062 13.9548C12.2414 13.9571 13.3629 13.7074 14.3898 13.2236C15.4167 12.7399 16.3234 12.0341 17.0445 11.1574C16.5538 12.7087 15.6183 14.0817 14.354 15.1058V15.1059Z" fill="white"/>
</svg>
