<svg width="18" height="18" viewBox="0 0 18 18" fill="none" xmlns="http://www.w3.org/2000/svg">
<g clip-path="url(#clip0_119_125)">
<path d="M8.98996 14.4581C5.97492 14.4581 3.52179 12.0051 3.52179 8.9899C3.52179 5.97486 5.97492 3.52173 8.98996 3.52173C12.0052 3.52173 14.4581 5.97486 14.4581 8.9899C14.4581 12.0051 12.0052 14.4581 8.98996 14.4581ZM8.98996 3.91688C6.19265 3.91688 3.91695 6.19259 3.91695 8.9899C3.91695 11.787 6.19265 14.0629 8.98996 14.0629C11.7871 14.0629 14.063 11.787 14.063 8.9899C14.063 6.19259 11.7871 3.91688 8.98996 3.91688Z" fill="black"/>
<path d="M8.98994 2.28271C8.88087 2.28271 8.79236 2.19419 8.79236 2.08513V0.296455C8.79236 0.187392 8.88087 0.098877 8.98994 0.098877C9.099 0.098877 9.18751 0.187392 9.18751 0.296455V2.08513C9.18751 2.19419 9.099 2.28271 8.98994 2.28271Z" fill="black"/>
<path d="M8.98994 17.8809C8.88087 17.8809 8.79236 17.7925 8.79236 17.6833V15.8946C8.79236 15.7853 8.88087 15.697 8.98994 15.697C9.099 15.697 9.18751 15.7853 9.18751 15.8946V17.6833C9.18751 17.7925 9.099 17.8809 8.98994 17.8809Z" fill="black"/>
<path d="M2.08519 9.18739H0.296516C0.187453 9.18739 0.098938 9.09888 0.098938 8.98981C0.098938 8.88075 0.187453 8.79224 0.296516 8.79224H2.08519C2.19425 8.79224 2.28277 8.88075 2.28277 8.98981C2.28277 9.09888 2.19425 9.18739 2.08519 9.18739Z" fill="black"/>
<path d="M17.6834 9.18739H15.8947C15.7855 9.18739 15.6971 9.09888 15.6971 8.98981C15.6971 8.88075 15.7855 8.79224 15.8947 8.79224H17.6834C17.7927 8.79224 17.881 8.88075 17.881 8.98981C17.881 9.09888 17.7927 9.18739 17.6834 9.18739Z" fill="black"/>
<path d="M13.8723 4.30517C13.8217 4.30517 13.7712 4.2858 13.7326 4.24728C13.6554 4.17002 13.6554 4.04515 13.7326 3.9679L14.9973 2.7032C15.0746 2.62595 15.1994 2.62595 15.2767 2.7032C15.3539 2.78046 15.3539 2.90533 15.2767 2.98258L14.012 4.24728C13.9735 4.2858 13.9229 4.30517 13.8723 4.30517Z" fill="black"/>
<path d="M2.84271 15.3345C2.79213 15.3345 2.74155 15.3151 2.70302 15.2766C2.62577 15.1993 2.62577 15.0745 2.70302 14.9972L3.96772 13.7325C4.04497 13.6552 4.16984 13.6552 4.24709 13.7325C4.32435 13.8098 4.32435 13.9346 4.24709 14.0119L2.9824 15.2766C2.94387 15.3153 2.89329 15.3345 2.84271 15.3345Z" fill="black"/>
<path d="M4.10759 4.30517C4.05701 4.30517 4.00643 4.2858 3.9679 4.24728L2.7032 2.98258C2.62595 2.90533 2.62595 2.78046 2.7032 2.7032C2.78046 2.62595 2.90533 2.62595 2.98258 2.7032L4.24728 3.9679C4.32453 4.04515 4.32453 4.17002 4.24728 4.24728C4.20855 4.2858 4.15797 4.30517 4.10759 4.30517Z" fill="black"/>
<path d="M15.137 15.3345C15.0864 15.3345 15.0358 15.3151 14.9973 15.2766L13.7326 14.0119C13.6554 13.9346 13.6554 13.8098 13.7326 13.7325C13.8099 13.6552 13.9347 13.6552 14.012 13.7325L15.2767 14.9972C15.3539 15.0745 15.3539 15.1993 15.2767 15.2766C15.2382 15.3153 15.1876 15.3345 15.137 15.3345Z" fill="black"/>
</g>
<defs>
<clipPath id="clip0_119_125">
<rect width="18" height="18" fill="white"/>
</clipPath>
</defs>
</svg>
