<svg width="35" height="32" viewBox="0 0 35 32" fill="none" xmlns="http://www.w3.org/2000/svg">
<g clip-path="url(#clip0_110_92)">
<path d="M33.1516 0.969727L19.9352 10.3952L22.3995 4.83882L33.1516 0.969727Z" fill="#E17726" stroke="#E17726" stroke-width="0.25" stroke-linecap="round" stroke-linejoin="round"/>
<path d="M2.67549 0.969727L15.7712 10.4728L13.4276 4.84851L2.67549 0.969727ZM28.3941 22.817L24.8738 27.9952L32.4073 29.9928L34.5598 22.9334L28.3941 22.817ZM1.2774 22.9334L3.41979 29.9928L10.9332 27.9952L7.43299 22.817L1.2774 22.9334Z" fill="#E27625" stroke="#E27625" stroke-width="0.25" stroke-linecap="round" stroke-linejoin="round"/>
<path d="M10.5309 14.0703L8.43878 17.1151L15.8818 17.4448L15.6404 9.71635L10.5309 14.08V14.0703ZM25.2962 14.08L20.1062 9.61938L19.9352 17.4448L27.3783 17.1151L25.2962 14.08ZM10.9332 27.9951L15.4493 25.9006L11.5669 22.9915L10.9332 27.9951ZM20.3879 25.8909L24.8738 27.9951L24.2703 22.9818L20.3879 25.8909Z" fill="#E27625" stroke="#E27625" stroke-width="0.25" stroke-linecap="round" stroke-linejoin="round"/>
<path d="M24.8738 27.9952L20.3879 25.9006L20.75 28.7128L20.7097 29.9055L24.8738 27.9952ZM10.9332 27.9952L15.1174 29.9055L15.0872 28.7128L15.4493 25.9006L10.9332 27.9952Z" fill="#D5BFB2" stroke="#D5BFB2" stroke-width="0.25" stroke-linecap="round" stroke-linejoin="round"/>
<path d="M15.1878 21.12L11.4663 20.0727L14.1015 18.9091L15.1979 21.12H15.1878ZM20.6293 21.12L21.7357 18.8994L24.381 20.0631L20.6293 21.1297V21.12Z" fill="#233447" stroke="#233447" stroke-width="0.25" stroke-linecap="round" stroke-linejoin="round"/>
<path d="M10.9332 27.9952L11.587 22.8171L7.43298 22.9334L10.9332 27.9952ZM24.2401 22.8171L24.8738 27.9952L28.3941 22.9334L24.2401 22.8171ZM27.3883 17.1152L19.9453 17.4449L20.6293 21.1298L21.7357 18.8995L24.3809 20.0631L27.3883 17.1152ZM11.4663 20.0728L14.1015 18.9092L15.1979 21.1201L15.8919 17.4352L8.44886 17.1152L11.4663 20.0728Z" fill="#CC6228" stroke="#CC6228" stroke-width="0.25" stroke-linecap="round" stroke-linejoin="round"/>
<path d="M8.44885 17.1152L11.5669 22.9819L11.4663 20.0728L8.44885 17.1152ZM24.3809 20.0728L24.2602 22.9819L27.3783 17.1152L24.3809 20.0728ZM15.8919 17.4449L15.1878 21.1298L16.0729 25.474L16.2741 19.7431L15.8919 17.4449ZM19.9352 17.4449L19.5732 19.7334L19.7542 25.474L20.6293 21.1201L19.9352 17.4352V17.4449Z" fill="#E27525" stroke="#E27525" stroke-width="0.25" stroke-linecap="round" stroke-linejoin="round"/>
<path d="M20.6293 21.12L19.7542 25.474L20.3879 25.9006L24.2602 22.9915L24.3809 20.0728L20.6293 21.12ZM11.4663 20.0728L11.5669 22.9818L15.4493 25.8909L16.0729 25.474L15.1979 21.12L11.4562 20.0728H11.4663Z" fill="#F5841F" stroke="#F5841F" stroke-width="0.25" stroke-linecap="round" stroke-linejoin="round"/>
<path d="M20.7198 29.9054L20.75 28.7127L20.408 28.4412H15.4192L15.0872 28.7127L15.1174 29.9054L10.9332 27.9951L12.4017 29.1588L15.3689 31.1272H20.4482L23.4254 29.1491L24.8738 27.9951L20.7097 29.9054H20.7198Z" fill="#C0AC9D" stroke="#C0AC9D" stroke-width="0.25" stroke-linecap="round" stroke-linejoin="round"/>
<path d="M20.3879 25.8908L19.7542 25.4739H16.0729L15.4493 25.9005L15.0872 28.7127L15.4191 28.4411H20.408L20.75 28.7127L20.3879 25.9005V25.8908Z" fill="#161616" stroke="#161616" stroke-width="0.25" stroke-linecap="round" stroke-linejoin="round"/>
<path d="M33.7149 11.0061L34.8213 5.81821L33.1516 0.969727L20.3778 10.0849L25.2962 14.0703L32.2363 16.0194L33.7652 14.3031L33.1013 13.8376L34.1574 12.9067L33.3528 12.3055L34.4089 11.5297L33.7048 11.0061H33.7149ZM1.0058 5.80851L2.13231 11.0061L1.40812 11.52L2.48434 12.2958L1.67969 12.9067L2.72574 13.8376L2.0619 14.3031L3.59074 16.0194L10.5309 14.08L15.4493 10.0752L2.67545 0.969727L1.0058 5.80851Z" fill="#763E1A" stroke="#763E1A" stroke-width="0.25" stroke-linecap="round" stroke-linejoin="round"/>
<path d="M32.2364 16.0195L25.2962 14.0801L27.3883 17.1152L24.2703 22.9819L28.3941 22.9334H34.5598L32.2364 16.0195ZM10.5309 14.0704L3.59078 16.0195L1.2774 22.9334H7.44304L11.5669 22.9819L8.44886 17.1152L10.541 14.0704H10.5309ZM19.9353 17.4449L20.3879 10.0752L22.3995 4.83887H13.4276L15.4393 10.0752L15.8919 17.4449L16.0629 19.7528V25.474H19.7542L19.7743 19.7528L19.9353 17.4449Z" fill="#F5841F" stroke="#F5841F" stroke-width="0.25" stroke-linecap="round" stroke-linejoin="round"/>
</g>
<defs>
<clipPath id="clip0_110_92">
<rect width="35" height="32" fill="white"/>
</clipPath>
</defs>
</svg>
