<svg width="130" height="139" viewBox="0 0 130 139" fill="none" xmlns="http://www.w3.org/2000/svg">
<g opacity="0.2">
<path d="M54.1667 138.667V0L43.3334 7.58333V131.083L54.1667 138.667Z" fill="url(#paint0_linear_120_159)"/>
<path d="M75.8333 138.667V0L65 7.58333V131.083L75.8333 138.667Z" fill="url(#paint1_linear_120_159)"/>
<path d="M97.5 123.5V15.1665L86.6666 21.091V117.575L97.5 123.5Z" fill="url(#paint2_linear_120_159)"/>
<path d="M119.167 108.333V30.3335L108.333 34.5991V104.068L119.167 108.333Z" fill="url(#paint3_linear_120_159)"/>
<path d="M10.8333 108.333V30.3335L0 34.5991V104.068L10.8333 108.333Z" fill="url(#paint4_linear_120_159)"/>
<path d="M32.5 123.5V15.1665L21.6666 21.091V117.575L32.5 123.5Z" fill="url(#paint5_linear_120_159)"/>
<path d="M54.1667 138.667V0L65 7.58333V131.083L54.1667 138.667Z" fill="url(#paint6_linear_120_159)"/>
<path d="M75.8333 138.667V0L86.6666 7.58333V131.083L75.8333 138.667Z" fill="url(#paint7_linear_120_159)"/>
<path d="M97.5 123.5V15.1665L108.333 21.091V117.575L97.5 123.5Z" fill="url(#paint8_linear_120_159)"/>
<path d="M119.167 108.333V30.3335L130 34.5991V104.068L119.167 108.333Z" fill="url(#paint9_linear_120_159)"/>
<path d="M10.8333 108.333V30.3335L21.6666 34.5991V104.068L10.8333 108.333Z" fill="url(#paint10_linear_120_159)"/>
<path d="M32.5 123.5V15.1665L43.3334 21.091V117.575L32.5 123.5Z" fill="url(#paint11_linear_120_159)"/>
</g>
<defs>
<linearGradient id="paint0_linear_120_159" x1="48.75" y1="0" x2="48.75" y2="138.667" gradientUnits="userSpaceOnUse">
<stop stop-color="#620057"/>
<stop offset="1" stop-color="#260059"/>
</linearGradient>
<linearGradient id="paint1_linear_120_159" x1="70.4167" y1="0" x2="70.4167" y2="138.667" gradientUnits="userSpaceOnUse">
<stop stop-color="#620057"/>
<stop offset="1" stop-color="#260059"/>
</linearGradient>
<linearGradient id="paint2_linear_120_159" x1="92.0833" y1="15.1665" x2="92.0833" y2="123.5" gradientUnits="userSpaceOnUse">
<stop stop-color="#620057"/>
<stop offset="1" stop-color="#260059"/>
</linearGradient>
<linearGradient id="paint3_linear_120_159" x1="113.75" y1="30.3335" x2="113.75" y2="108.333" gradientUnits="userSpaceOnUse">
<stop stop-color="#620057"/>
<stop offset="1" stop-color="#260059"/>
</linearGradient>
<linearGradient id="paint4_linear_120_159" x1="5.41667" y1="30.3335" x2="5.41667" y2="108.333" gradientUnits="userSpaceOnUse">
<stop stop-color="#620057"/>
<stop offset="1" stop-color="#260059"/>
</linearGradient>
<linearGradient id="paint5_linear_120_159" x1="27.0833" y1="15.1665" x2="27.0833" y2="123.5" gradientUnits="userSpaceOnUse">
<stop stop-color="#620057"/>
<stop offset="1" stop-color="#260059"/>
</linearGradient>
<linearGradient id="paint6_linear_120_159" x1="59.5833" y1="0" x2="59.5833" y2="138.667" gradientUnits="userSpaceOnUse">
<stop stop-color="#C91B98"/>
<stop offset="1" stop-color="#41087D"/>
</linearGradient>
<linearGradient id="paint7_linear_120_159" x1="81.25" y1="0" x2="81.25" y2="138.667" gradientUnits="userSpaceOnUse">
<stop stop-color="#C91B98"/>
<stop offset="1" stop-color="#41087D"/>
</linearGradient>
<linearGradient id="paint8_linear_120_159" x1="102.917" y1="15.1665" x2="102.917" y2="123.5" gradientUnits="userSpaceOnUse">
<stop stop-color="#C91B98"/>
<stop offset="1" stop-color="#41087D"/>
</linearGradient>
<linearGradient id="paint9_linear_120_159" x1="124.583" y1="30.3335" x2="124.583" y2="108.333" gradientUnits="userSpaceOnUse">
<stop stop-color="#C91B98"/>
<stop offset="1" stop-color="#41087D"/>
</linearGradient>
<linearGradient id="paint10_linear_120_159" x1="16.25" y1="30.3335" x2="16.25" y2="108.333" gradientUnits="userSpaceOnUse">
<stop stop-color="#C91B98"/>
<stop offset="1" stop-color="#41087D"/>
</linearGradient>
<linearGradient id="paint11_linear_120_159" x1="37.9167" y1="15.1665" x2="37.9167" y2="123.5" gradientUnits="userSpaceOnUse">
<stop stop-color="#C91B98"/>
<stop offset="1" stop-color="#41087D"/>
</linearGradient>
</defs>
</svg>
