<?xml version="1.0" encoding="UTF-8" standalone="no"?>
<!-- Created with Inkscape (http://www.inkscape.org/) -->

<svg
   width="41.649826mm"
   height="41.666946mm"
   viewBox="0 0 41.649826 41.666946"
   version="1.1"
   id="svg5"
   xml:space="preserve"
   inkscape:version="1.2.2 (b0a8486, 2022-12-01)"
   sodipodi:docname="tp.svg"
   inkscape:dataloss="true"
   xmlns:inkscape="http://www.inkscape.org/namespaces/inkscape"
   xmlns:sodipodi="http://sodipodi.sourceforge.net/DTD/sodipodi-0.dtd"
   xmlns="http://www.w3.org/2000/svg"
   xmlns:svg="http://www.w3.org/2000/svg"><sodipodi:namedview
     id="namedview7"
     pagecolor="#ffffff"
     bordercolor="#000000"
     borderopacity="0.25"
     inkscape:showpageshadow="2"
     inkscape:pageopacity="0.0"
     inkscape:pagecheckerboard="0"
     inkscape:deskcolor="#d1d1d1"
     inkscape:document-units="mm"
     showgrid="false"
     inkscape:zoom="0.99045219"
     inkscape:cx="454.84275"
     inkscape:cy="583.06701"
     inkscape:window-width="1488"
     inkscape:window-height="791"
     inkscape:window-x="212"
     inkscape:window-y="164"
     inkscape:window-maximized="0"
     inkscape:current-layer="layer1" /><defs
     id="defs2" /><g
     inkscape:label="Layer 1"
     inkscape:groupmode="layer"
     id="layer1"
     transform="translate(-75.048784,-134.17222)"><path
       style="fill:#000000;stroke-width:0.264583"
       d="M 92.094123,175.68797 C 90.066593,175.31073 88.728353,174.88866 88.433543,174.53343 88.123513,174.15987 88.099123,174.23749 92.232643,162.44238 93.584063,158.58607 94.824793,154.92458 94.989833,154.30573 95.493033,152.41885 95.798943,152.33344 101.67,152.44063 107.25473,152.54259 107.97285,152.70718 108.51199,154.00877 108.77938,154.65432 108.71881,155.111 108.1042,157.0833 107.15291,160.13597 106.58277,161.20369 105.43751,162.07723 104.54346,162.75915 104.28356,162.80983 100.94972,162.95245 98.977683,163.03681 97.284653,163.23041 97.125703,163.38973 96.838393,163.6777 94.416853,170.1194 94.061463,171.54113 L 93.870383,172.3055 96.584843,172.11306 C 101.49715,171.76479 104.49394,170.42938 107.86834,167.08499 111.58897,163.39744 113.12512,159.43616 112.95199,153.97571 L 112.86391,151.19758 114.1693,151.11496 C 116.72829,150.95298 116.70066,150.91805 116.69838,154.31148 116.69587,158.03755 116.35244,160.18182 115.36203,162.65525 113.02469,168.49247 108.35789,172.90345 102.41287,174.89456 100.22734,175.62654 99.467753,175.74769 96.592043,175.82295 94.773033,175.87055 92.748973,175.80981 92.094123,175.68797 Z M 100.82537,174.46807 C 104.58848,173.58866 108.80069,170.87888 111.40619,167.66126 112.95846,165.7443 114.64919,162.45903 115.24942,160.19342 115.61613,158.80927 115.89499,152.51707 115.60039,152.27432 115.55054,152.23325 115.12279,152.12598 114.64985,152.03595 L 113.78996,151.87227 V 154.76305 C 113.78996,158.48137 113.48363,159.90076 112.02535,162.93958 110.05157,167.05263 106.18878,170.49842 101.68303,172.16543 100.25955,172.69209 99.258153,172.84865 96.724333,172.94071 94.856143,173.00859 93.391083,172.94804 93.164833,172.7936 92.831533,172.56609 92.844763,172.32626 93.264223,170.99249 94.579323,166.81076 96.164393,162.91724 96.692473,162.57139 97.054893,162.33404 98.500113,162.13821 100.7749,162.0182 105.37986,161.77525 105.62145,161.59505 107.07608,157.31829 107.92588,154.81975 107.90477,154.04292 106.97694,153.67079 106.25774,153.38234 96.510513,153.17926 96.240033,153.44708 96.166253,153.52014 96.023773,153.9071 95.923413,154.30698 L 95.740933,155.03404 H 99.687793 C 104.78357,155.03404 104.81634,155.05327 104.04546,157.59122 103.28161,160.10603 102.86319,160.43363 100.26424,160.55165 97.219423,160.68992 97.173673,160.62767 97.813673,157.21685 L 97.975023,156.35696 H 96.786763 C 96.133223,156.35696 95.480943,156.50579 95.337263,156.68769 95.039593,157.06455 89.142013,173.86595 89.264433,173.98837 89.308383,174.03232 89.992813,174.24259 90.785383,174.45563 92.760333,174.98648 98.576173,174.99369 100.82537,174.46807 Z M 102.44477,159.0291 C 102.71447,158.69604 103.06493,157.94149 103.22358,157.35233 103.59276,155.98129 103.37742,155.83687 100.95767,155.83271 L 99.105583,155.82952 98.664393,157.60903 C 98.421743,158.58777 98.287923,159.49326 98.367013,159.62124 98.446113,159.74923 99.285633,159.8046 100.23262,159.74431 101.62932,159.65537 102.047,159.52033 102.44477,159.0291 Z M 84.208743,172.48932 C 81.535993,170.70453 78.535103,167.29952 77.151313,164.48151 75.355773,160.825 75.024623,159.29439 75.050103,154.76946 75.069323,151.35504 75.149213,150.70015 75.776303,148.81633 76.935563,145.33383 78.388443,143.01742 81.086693,140.34967 84.528943,136.94633 87.550183,135.30796 91.914423,134.47798 94.787503,133.93158 99.188783,134.13721 101.75142,134.93756 107.49571,136.7316 112.17634,140.70566 114.74106,145.96633 115.25387,147.0182 115.73953,148.28605 115.8203,148.78378 L 115.96715,149.68872 105.99361,149.78169 C 96.685463,149.86846 95.996383,149.90706 95.665143,150.36016 95.469933,150.62718 94.445703,153.48468 93.389073,156.71016 92.332433,159.93564 91.340923,162.66214 91.185713,162.76905 90.792653,163.0398 87.542503,163.01323 87.104473,162.73569 86.815253,162.55244 87.118103,161.30977 88.654753,156.37457 89.705093,153.00121 90.482393,150.15872 90.382073,150.05793 90.281763,149.95713 88.904913,149.81457 87.322413,149.74111 85.739913,149.66766 84.329883,149.48906 84.189003,149.34424 84.023363,149.17395 84.089243,148.61353 84.375483,147.758 L 84.818083,146.43508 97.562433,146.30279 C 104.57183,146.23003 110.38964,146.08753 110.49091,145.98612 110.59218,145.88471 109.56019,144.68675 108.1976,143.32399 104.18691,139.31279 101.0661,137.9924 95.666003,138.02197 92.029633,138.04187 90.361313,138.46059 87.417823,140.09209 85.142653,141.35315 81.934783,144.55884 80.805733,146.69967 79.173813,149.79403 78.788343,151.38651 78.788343,155.03404 78.788343,158.67009 79.179353,160.29506 80.779023,163.30697 81.815233,165.25799 84.325593,167.99889 86.311433,169.34744 87.163583,169.92613 87.860793,170.56388 87.860793,170.76467 87.860793,170.96547 87.626903,171.67541 87.341033,172.34231 86.688913,173.86364 86.294523,173.88215 84.208743,172.48932 Z M 86.528573,171.98477 C 86.979473,171.14225 86.845143,170.68012 86.026253,170.25665 83.838283,169.12521 80.503673,165.1453 79.146463,162.0455 77.813293,159.00062 77.404663,154.24953 78.190693,150.933 79.589163,145.03247 83.837583,140.29977 89.879723,137.91155 91.580883,137.23914 91.959823,137.19315 95.798293,137.19315 99.592213,137.19315 100.02926,137.24462 101.63422,137.88044 104.73693,139.10961 106.44418,140.23724 108.76287,142.58889 111.37335,145.23646 111.92075,146.08269 111.41619,146.69065 111.12194,147.0452 109.46337,147.09654 98.305323,147.09654 H 85.531313 L 85.240843,147.92977 C 85.081083,148.38805 84.950373,148.80477 84.950373,148.85582 84.950373,148.90686 86.305013,148.94863 87.960693,148.94863 91.529763,148.94863 91.761613,149.08075 91.291503,150.84666 90.967163,152.06501 88.281103,160.67086 87.981923,161.45019 87.825853,161.85674 87.982463,161.91321 89.266053,161.91321 H 90.727933 L 92.305453,157.08456 C 94.763213,149.56158 94.876983,149.30487 95.838543,149.11256 96.289343,149.02239 100.75096,148.94863 105.75324,148.94863 113.32319,148.94863 114.84829,148.88721 114.84829,148.58239 114.84829,147.80094 112.6907,143.96867 111.31013,142.29797 108.97708,139.47464 106.05939,137.4417 102.41287,136.0987 100.67206,135.45756 99.955413,135.35356 96.574153,135.25141 91.980793,135.11265 90.478593,135.41024 86.934753,137.16103 82.097203,139.55097 78.738873,143.32715 76.879093,148.46783 76.050563,150.758 75.724043,154.02119 75.990393,157.34915 76.425823,162.7895 79.778673,168.39484 84.498753,171.57353 86.093473,172.64747 86.166033,172.66217 86.528573,171.98477 Z"
       id="path191"
       inkscape:export-filename="../path191.svg"
       inkscape:export-xdpi="96"
       inkscape:export-ydpi="96" /></g></svg>
